<?xml version="1.0" encoding="UTF-8"?>
<!DOCTYPE svg PUBLIC "-//W3C//DTD SVG 1.1//EN" "http://www.w3.org/Graphics/SVG/1.1/DTD/svg11.dtd">
<!-- Creator: CorelDRAW 2020 (64-Bit) -->
<svg xmlns="http://www.w3.org/2000/svg" xml:space="preserve" width="7.12622in" height="7.66902in" version="1.1" style="shape-rendering:geometricPrecision; text-rendering:geometricPrecision; image-rendering:optimizeQuality; fill-rule:evenodd; clip-rule:evenodd"
viewBox="0 0 7126.22 7669.02"
 xmlns:xlink="http://www.w3.org/1999/xlink"
 xmlns:xodm="http://www.corel.com/coreldraw/odm/2003">
 <defs>
  <style type="text/css">
   <![CDATA[
    .fil0 {fill:#2C414E}
    .fil1 {fill:#F72D21}
   ]]>
  </style>
 </defs>
 <g id="Layer_x0020_1">
  <metadata id="CorelCorpID_0Corel-Layer"/>
  <g id="_2133443984656">
   <path class="fil0" d="M5458.6 1786.98l0.44 433.28c35.78,-11.56 116.71,-69.51 155.4,-95.3 20.08,-13.38 150.59,-97.44 160.87,-99.83 21.91,-5.1 262.83,172.03 307.49,205.43 52.85,39.51 103.77,70.43 153.59,107.57l308.48 213.94c49.65,35.19 107.27,71.02 153.63,109.56 7.89,291.8 1.09,659.71 0.33,964.54 -27.7,8.92 -131.46,86.14 -161.74,107.33l-163.6 114.61 35.93 26.06c67.78,37.15 243.71,151.35 289.56,166.55 2.68,305.69 -5.74,641.61 1.55,943.97l-795.32 567.05c-46.72,-33.54 -89.25,-62.44 -137.59,-96.1l-419.89 -291.5 -361.08 283.4c37.22,16.04 418.48,276.34 461.8,305.02l464.21 311.76 1190.35 -861.56c32.02,-24.8 21.54,-36.21 21.56,-123.39l0.09 -2619.21c-2.84,-16.25 -20.49,-25.83 -34.84,-35.85l-945.71 -665.75c-110.77,-75.98 -221.03,-153.85 -328.45,-231.19 -32.99,13.35 -60.43,39.76 -88.58,60.35 -30.22,22.11 -60.15,43.96 -90.38,66.45 -59.15,44.02 -122.35,90.15 -178.11,132.83z"/>
   <path class="fil0" d="M-0 2442.35c9.39,706.17 1.21,1462.93 0.78,2174.36l0.29 567.12c74.76,69.94 909.18,663.67 1057.27,772.81 35.98,26.52 120.13,93.93 153.2,106.41l919.3 -625.5 -344.71 -270.22 -281.28 190.05c-95.4,66.62 -189.63,132.33 -285.85,193.56l-709.32 -508.63c-103.91,-75.25 -83.49,-35.98 -83.47,-276.34l0.03 -708.91c7.11,-16.53 0.9,-6.47 13.07,-18.2l314.63 -184.98 -289.11 -206.96c-52.43,-36.46 -38.58,-30.26 -38.59,-164.44l-0.15 -820.84c113.85,-90.94 423.45,-294.83 569.76,-401.94l342.55 -239.43c61.45,27.58 246.8,164.07 323.89,198.01l-0.13 -439.95 -260.68 -187.41c-27.54,-20.86 -62.11,-53.52 -92.93,-64.32 -48.73,26.5 -110.87,79.91 -161.35,115.29 -55.85,39.14 -107.38,75.9 -162.07,114.01 -129.25,90.06 -368.54,249.93 -491.58,344.21 -52.24,40.03 -108.34,77.5 -162.11,114.12 -53.59,36.5 -294.04,217.87 -331.45,228.13z"/>
   <path class="fil1" d="M916.83 3169.05c52.17,45.08 118.46,91.57 171.73,130.64 30.7,22.52 54.74,41.73 84.36,64.81 20.41,15.9 69.18,54.42 90.85,66.48 31.88,-14.13 167.45,-119.56 219.19,-154.54 142.87,-96.58 292.27,-217.29 433.8,-312.37l220.08 -154.55c104.06,66.96 200.5,142.64 303.78,212.61 86.84,58.83 868.76,618.06 913.73,638.13 8.78,808.62 1.93,1654.18 1.65,2463.8 -0.02,68.97 5.56,53.37 96.19,117.63 42.88,30.41 87.99,64.93 131.08,88.37 39.04,-19.22 170.88,-121.71 230.48,-155.24l0.12 -2698.9 -415.62 -292.41c-138.39,-97.59 -278.39,-192 -417.08,-291.86 -139.59,-100.51 -274.84,-197.79 -415.39,-293.45 -68.98,-46.95 -139.89,-96.91 -210.33,-147.8 -68.45,-49.46 -142.37,-103.4 -211.15,-145.99 -32.43,11.53 -120.91,79.72 -156.11,103.94 -55.12,37.92 -100.75,71.85 -151.91,109.25l-767.16 538.8c-25.94,18.57 -49.11,33.41 -74.42,52.43l-77.88 60.23z"/>
   <path class="fil0" d="M1768.44 6377.77c69.37,58.06 245.78,178.93 335.24,242.29l1458.43 1048.97c71.02,-41.76 559.99,-410.5 670.76,-485.98l1017.2 -721.65c38.42,-28.13 79.69,-53.04 113.62,-83.63 -52.74,-47.67 -661.09,-420.16 -678.92,-426.45l0.64 364.14c-21.09,18.75 -45.17,31.59 -69.3,49.11l-768.29 544.97c-47.81,33.18 -93.99,65.92 -139.25,99.52l-138.82 97.04 -980.72 -710.61c-48.71,-34.3 -89.03,-71.62 -146.09,-96.89l0.26 -346.32c-12.17,4.44 -635.26,385.94 -674.76,425.49z"/>
   <path class="fil0" d="M3562.62 0l-159.16 109.57 -809.45 553.88c-83.43,57.88 -790.2,529.76 -814.88,558.88 61.09,35.06 321.88,243.93 360.31,259.67l1328.61 -914.03c22.46,-15.41 73.93,-54.85 94.07,-62.61l530.3 365.1c163.11,118.54 362.75,247.49 534.43,368.4l362.62 243.02 358.06 -267.91 -1418.81 -963.64c-123.55,-82.47 -242.83,-167.72 -366.09,-250.33z"/>
   <path class="fil1" d="M949.58 4460c45.73,42.64 329.99,252.92 354.93,261.65l204.92 -150.07c68.48,-49.93 137.1,-100.56 207.71,-150.59 71.75,-50.85 135.9,-98.05 206.77,-151.37l205.15 -152.28c48.54,23.93 161.66,119.13 219.89,160.43 64.84,45.99 50.28,21.67 50.3,204.61l0.08 581.03c107.67,57.22 322.97,216.21 433.96,272.09l1.87 -1225.2c-5.09,-12.94 -482.46,-350.18 -518.18,-375.32 -41.91,-29.49 -144.91,-111.85 -180.11,-124.29 -99.15,62.69 -195.84,141.15 -296.26,209.62 -237.7,162.07 -498.68,358.61 -740.38,528.11 -24.04,16.86 -49,35.2 -74.26,52.52 -15.33,10.51 -21.96,13.95 -40.69,26.61l-35.68 32.44z"/>
   <path class="fil1" d="M4296.13 4110.7l0.43 1225.08c29.56,-9.87 403.43,-245.7 430.81,-271.34l1.74 -752.05 255.01 -196.25c41.31,18.4 644.66,457.83 735.88,521.71 27.47,19.23 85.24,64.39 110.6,73.96l344.96 -262.03c-31.93,-12.87 -254.39,-176.28 -297.99,-208.47l-891.49 -630.22 -170.94 124.24c-57.77,40.42 -117.21,83.04 -173.74,124.79 -113.43,83.76 -237.47,164.73 -345.26,250.59z"/>
   <path class="fil1" d="M4044.44 2978.19c41.18,13.3 327.14,236.02 360.9,249.36 78.71,-48.71 207.44,-147.7 292.43,-206.22 38.23,-26.33 264.31,-194.51 297.08,-209.26 32.39,18.55 73.77,50.16 105.4,72.78l326.49 233.04c49.26,33.87 401.03,286.45 443.9,305.65 31.37,-42.84 313.29,-218.45 337.33,-265.63 -36.28,-11.85 -995.42,-696.95 -1065.97,-748.04 -25.5,-18.46 -48.65,-34.3 -74.73,-52.15 -27.14,-18.57 -52.56,-41.5 -79.88,-54.25l-473.04 332.64c-30.45,22.51 -449.08,307.55 -469.9,342.08z"/>
   <path class="fil1" d="M2643.16 1945.26l359.29 253.81c45.56,-26.17 95.79,-64.86 138.35,-92.93l277.63 -192.39c48.41,-34.94 93.25,-67.65 143.68,-97.45l281.15 191.29c44.9,31.85 89.3,64.63 135.5,95.7 37.24,25.05 106.26,78.57 143.01,95.72 28.17,-12.8 63.65,-41.7 88.82,-60.23 32.34,-23.8 58.92,-39.12 92.85,-64.03 31.24,-22.93 56.44,-41.15 86.24,-62.76 24.55,-17.81 68.52,-43.41 89.62,-66.73 -18.39,-23.27 -82.04,-60.98 -111.61,-81.98l-805.58 -551.23 -918.95 633.21z"/>
  </g>
 </g>
</svg>
